<svg width="252" height="253" viewBox="0 0 252 253" fill="none" xmlns="http://www.w3.org/2000/svg">
<path d="M133.437 0.159058V252.005C107.828 253.228 83.0525 247.054 61.1567 234.01C29.2402 214.994 6.19044 180.459 1.16526 143.473C0.765811 140.514 0.879235 137.274 0.109924 134.443C0.366361 128.792 -0.235279 122.844 0.109924 117.227C3.85292 56.6097 54.8148 3.86753 116.014 0.671931L117.203 0.159058H133.437ZM118.677 16.3886C101.176 23.0559 91.1105 42.4662 85.2223 59.1839H118.677V16.3886ZM37.5004 59.1839H68.7413C70.704 56.3631 71.355 52.5264 72.6865 49.3555C76.7303 39.7194 81.4892 30.1326 88.1713 22.045C88.2453 21.6702 87.7176 21.7441 87.4316 21.7935C84.9264 22.2324 77.0163 26.074 74.3731 27.4351C62.0394 33.7769 51.2839 42.9347 41.9387 53.0492L37.4955 59.1839H37.5004ZM65.0526 73.9389H27.9087C20.5213 87.6435 16.1175 103.074 15.363 118.702H59.1496C59.7858 103.631 61.492 88.5805 65.0526 73.9389ZM118.677 73.9389H80.3056C77.5243 85.952 75.1966 98.2412 74.4076 110.59C74.235 113.287 74.8859 116.192 73.9095 118.702H118.677V73.9389ZM59.1496 133.457H15.363C16.1175 148.809 20.4325 164.343 27.9087 177.727H64.5594C61.9161 163.08 59.5441 148.399 59.1496 133.457ZM118.677 133.457H73.9095C74.8465 145.164 75.6898 156.881 78.0865 168.387C78.7226 171.449 79.3539 174.995 80.5522 177.727H118.682V133.457H118.677ZM68.7413 192.482H37.0073C49.9721 209.56 67.6515 223.101 87.9198 230.36L78.0766 214.624L68.7413 192.482ZM118.677 192.482H84.7292C91.3867 209.328 100.668 228.999 118.677 235.765V192.482Z" fill="#0272BD"/>
<path d="M204.278 0.15904C234.212 3.3793 239.918 47.9106 209.175 57.9313L204.278 59.1839H220.266L252 77.1394V162.972H236.259L221.474 251.975L179.473 252.029L164.427 162.972H148.686V76.3997L183.369 59.1839H196.407L191.511 57.9313C160.768 47.9106 166.473 3.37436 196.407 0.15904C198.36 -0.0530134 202.33 -0.0530134 204.278 0.15904ZM199.263 15.0373C177.456 16.7485 184.567 51.2492 205.748 43.1911C221.183 37.3177 215.66 13.7502 199.263 15.0373ZM237.24 148.217V85.9964C231.303 82.6578 225.138 78.6337 219.048 75.6551C217.332 74.8167 216.38 74.1164 214.388 73.9192C205.945 73.0857 196.018 74.4962 187.417 74.0523L163.445 85.7449V148.212H177.219L191.92 236.959L207.982 237.274L223.462 148.212H237.235L237.24 148.217Z" fill="#0272BD"/>
</svg>
