<svg width="183" height="261" viewBox="0 0 183 261" fill="none" xmlns="http://www.w3.org/2000/svg">
<path d="M0 260.228L0.0636566 33.8653C0.48379 18.9187 18.3458 0 33.2924 0H45.7436V34.0563C58.6532 32.9423 70.7543 35.0493 81.786 41.9752C85.3126 44.1904 88.0434 46.7685 91.2581 49.3275C92.8431 49.4803 94.53 46.7876 95.8223 45.7564C107.822 36.1824 121.992 32.6049 137.231 34.0499V0H149.682C164.629 0 182.491 18.9187 182.911 33.8653L183 173.592C180.702 218.457 143.985 256.963 98.9096 259.757L98.1012 260.228H0ZM30.4979 16.7735C24.7561 18.6196 19.4789 23.5338 17.1936 29.1356C16.6144 30.5488 15.2521 35.0557 15.2521 36.3416V49.8113C19.8227 45.6418 24.6224 41.3195 30.4979 39.1361V16.7735ZM167.729 49.8113V36.3416C167.729 35.0557 166.367 30.5488 165.787 29.1356C163.502 23.5338 158.225 18.6196 152.483 16.7735V39.1361C158.365 41.3195 163.158 45.6418 167.729 49.8113ZM48.6909 49.4485C27.2514 51.6446 12.3621 72.6131 15.9078 93.6261C20.9239 123.379 57.5201 135.569 79.558 114.881C84.3259 110.406 86.6748 104.059 90.5515 99.9536C90.9016 99.5844 91.0035 98.9287 91.7419 99.1133C98.1967 109.158 104.473 118.618 116.256 122.889C149.135 134.799 179.48 100.291 163.247 69.2902C151.751 47.3287 121.47 42.5099 103.417 59.4616C98.6486 63.9431 96.2997 70.2833 92.423 74.3891C92.0729 74.7583 91.9711 75.414 91.2326 75.2294C86.1465 67.8898 82.3271 60.7666 74.6628 55.7059C66.9986 50.6452 58.1248 48.4936 48.6782 49.4548L48.6909 49.4485ZM15.2458 243.964C32.3248 240.896 44.5851 225.79 45.7627 208.66C47.2587 186.896 44.5851 163.464 45.7627 141.521L45.2535 140C33.6234 138.434 23.9349 132.533 15.2458 125.028V243.964ZM99.1133 131.133V140.789H83.8676V131.133C78.5459 134.716 72.7659 137.256 66.5912 139.013C65.3371 139.37 61.4222 139.535 61.0594 140.598L60.9257 212.129C59.4362 224.587 53.9299 236.013 45.2344 244.97C68.9847 243.754 94.7847 248.344 117.536 240.272C139.338 232.538 157.48 213.523 164.177 191.364C170.523 170.377 166.634 146.735 167.722 125.028C163.909 127.74 160.593 130.986 156.506 133.373C138.625 143.826 116.129 142.839 99.1133 131.126V131.133Z" fill="#0272BD"/>
<path d="M53.1979 64.2359C80.7676 63.994 84.4533 104.632 58.074 109.668C25.0044 115.982 20.593 64.5224 53.1979 64.2359ZM51.1927 79.9146C44.165 81.3723 43.9359 93.2888 51.6192 94.4983C64.3315 96.5035 63.6631 77.3237 51.1927 79.9146Z" fill="#0272BD"/>
<path d="M129.44 64.2359C157.009 63.994 160.695 104.632 134.316 109.668C101.246 115.982 96.8347 64.5224 129.44 64.2359ZM127.434 79.9146C120.407 81.3723 120.178 93.2888 127.861 94.4983C140.573 96.5035 139.905 77.3237 127.434 79.9146Z" fill="#0272BD"/>
</svg>
