<svg width="256" height="225" viewBox="0 0 256 225" fill="none" xmlns="http://www.w3.org/2000/svg">
<path d="M255.25 224.34H0V0H87.2412L96.4655 14.4525L97.4579 14.9587H255.25V224.34ZM108.181 59.8214L78.5164 14.9587H14.9587V209.388H240.298V59.8214H108.187H108.181ZM240.298 29.9107H107.188L116.912 44.8694H240.298V29.9107Z" fill="#0272BD"/>
<path d="M154.436 74.9199C177.107 72.1892 189.228 100.322 171.732 114.654C162.894 121.894 151.226 120.995 142.414 114.261L119.303 127.349C120.536 132.057 120.536 137.159 119.303 141.868L142.414 154.955C152.604 146.916 166.943 147.695 175.189 158.085C189.968 176.707 168.988 202.641 147.542 192.212C138.318 187.723 134.329 177.912 134.855 168.009L112.663 155.754C110.872 155.148 109.786 157.412 108.341 158.451C82.8725 176.734 50.5908 150.546 62.8787 122.467C70.1383 105.883 90.9246 99.4292 106.343 109.273C108.201 110.458 110.885 113.902 112.663 113.469L134.602 101.467C135.621 100.322 134.915 96.7518 135.101 94.9869C136.167 84.9967 144.292 76.152 154.429 74.9265L154.436 74.9199ZM156.42 89.8453C147.096 91.1906 148.934 105.543 158.225 104.671C168.049 103.752 166.337 88.4133 156.42 89.8453ZM88.6269 119.789C69.8719 121.588 71.7967 150.406 90.9579 149.567C110.632 148.708 109.187 117.818 88.6269 119.789ZM156.42 164.625C147.096 165.971 148.934 180.323 158.225 179.451C168.049 178.532 166.337 163.193 156.42 164.625Z" fill="#0272BD"/>
<path d="M75.2795 29.9106H30.4102V44.8693H75.2795V29.9106Z" fill="#0272BD"/>
</svg>
