<svg width="291" height="190" viewBox="0 0 291 190" fill="none" xmlns="http://www.w3.org/2000/svg">
<path d="M291 106.32C251.712 158.929 190.012 199.607 121.483 188.003C78.1928 180.673 35.8516 150.879 8.4722 117.386C6.39881 114.849 1.58369 109.328 0.345729 106.707C0.102694 106.191 -0.208694 105.766 0.193832 105.196C14.7303 84.5305 34.2035 66.3105 54.8918 51.8347C82.8788 32.2629 114.914 21.2731 149.432 21.3035C155.06 15.8276 157.908 7.81508 157.407 0H175.027C175.05 8.40748 172.635 16.2757 169.338 23.8706C172.536 23.4908 179.721 27.2503 182.166 25.6174C186.267 22.8908 189.693 9.50114 189.229 4.54171H206.287C206.902 14.4302 203.462 23.8402 198.897 32.392L212.166 37.4577C213.115 37.1767 215.553 32.2629 216.054 31.0781C216.707 29.5363 218.796 23.7263 218.796 22.4503V14.2099H236.416C236.651 25.8604 233.408 36.7818 227.325 46.6019L241.254 55.6929C246.502 48.3259 247.816 39.5615 247.785 30.6983H264.843C265.269 39.7134 263.818 48.7816 260.218 57.0524C259.489 58.7309 255.084 66.0295 255.244 66.6826C258.236 69.1737 260.803 72.2041 263.704 74.7711C264.441 75.4243 268.345 78.7812 268.815 78.4546C270.091 75.6218 271.557 72.8269 272.393 69.8041C272.75 68.5054 273.942 63.789 273.942 62.8245V52.8752H291V65.9535C289.253 75.2724 286.124 84.2723 280.306 91.8291L291 105.181V106.32ZM144.222 38.8172C100.438 39.7058 74.1675 86.095 93.6255 124.897C113.281 164.086 173.189 165.742 195.381 128.094C218.819 88.3355 190.596 37.8754 144.222 38.8172ZM82.3547 55.7233C81.6712 55.1613 70.5296 62.103 68.9802 63.0979C51.0792 74.5813 34.8187 89.338 21.5961 105.925C47.6767 137.011 83.2889 164.405 124.415 170.55L112.833 165.94C72.922 146.542 56.145 92.9684 82.3471 55.7233H82.3547ZM166.498 170.55C207.692 164.299 243.206 137.041 269.317 105.925C257.294 90.9633 242.75 77.5433 226.938 66.6219C223.33 64.1308 212.94 56.8701 209.409 55.7233C209.12 55.6322 208.482 55.5714 208.566 55.9967C235.003 93.0823 217.55 146.983 177.677 166.107L166.498 170.55Z" fill="#0272BD"/>
</svg>
