<svg width="585" height="198" viewBox="0 0 585 198" fill="none" xmlns="http://www.w3.org/2000/svg">
<path d="M45.46 197.91C36.01 197.91 28.86 195.55 24 190.83C19.14 186.11 16.7 179.09 16.7 169.79V116.08C16.7 112.27 15.89 109.53 14.27 107.83C12.65 106.14 10.29 105.29 7.19 105.29H0.73C0.33 105.29 0 104.97 0 104.56V93.32C0 92.92 0.32 92.59 0.73 92.59H7.19C10.29 92.59 12.65 91.74 14.27 90.05C15.89 88.36 16.7 85.61 16.7 81.8V28.12C16.7 18.68 19.13 11.63 24 6.98C28.86 2.33 36.01 0 45.46 0H52.77C53.17 0 53.5 0.32 53.5 0.73V11.75C53.5 12.15 53.18 12.48 52.77 12.48H47.79C42.43 12.48 38.41 13.96 35.74 16.92C33.06 19.88 31.72 24.04 31.72 29.39V81.62C31.72 85.85 31.22 89.16 30.24 91.56C29.25 93.96 27.74 95.79 25.69 97.06C23.84 98.21 21.49 99.13 18.65 99.82C18.2 99.93 17.76 99.58 17.76 99.11V98.79C17.76 98.33 18.18 97.98 18.63 98.08C21.48 98.66 23.83 99.55 25.69 100.77C27.73 102.11 29.25 103.98 30.24 106.37C31.22 108.77 31.72 112.08 31.72 116.31V168.54C31.72 173.9 33.06 178.06 35.74 181.02C38.42 183.98 42.43 185.46 47.79 185.46H52.77C53.17 185.46 53.5 185.78 53.5 186.19V197.21C53.5 197.61 53.18 197.94 52.77 197.94H45.46V197.91Z" fill="white"/>
<path d="M138.62 197.91C148.07 197.91 155.22 195.55 160.08 190.83C164.94 186.11 167.38 179.09 167.38 169.79V116.08C167.38 112.27 168.19 109.53 169.81 107.83C171.43 106.14 173.79 105.29 176.89 105.29H183.35C183.75 105.29 184.08 104.97 184.08 104.56V93.32C184.08 92.92 183.76 92.59 183.35 92.59H176.89C173.79 92.59 171.43 91.74 169.81 90.05C168.19 88.36 167.38 85.61 167.38 81.8V28.12C167.38 18.68 164.95 11.63 160.08 6.98C155.22 2.33 148.06 0 138.62 0H131.31C130.91 0 130.58 0.32 130.58 0.73V11.75C130.58 12.15 130.9 12.48 131.31 12.48H136.29C141.65 12.48 145.67 13.96 148.34 16.92C151.02 19.88 152.36 24.04 152.36 29.39V81.62C152.36 85.85 152.86 89.16 153.84 91.56C154.83 93.96 156.34 95.79 158.39 97.06C160.24 98.21 162.59 99.13 165.43 99.82C165.88 99.93 166.32 99.58 166.32 99.11V98.79C166.32 98.33 165.9 97.98 165.45 98.08C162.6 98.66 160.25 99.55 158.39 100.77C156.35 102.11 154.83 103.98 153.84 106.37C152.86 108.77 152.36 112.08 152.36 116.31V168.54C152.36 173.9 151.02 178.06 148.34 181.02C145.66 183.98 141.65 185.46 136.29 185.46H131.31C130.91 185.46 130.58 185.78 130.58 186.19V197.21C130.58 197.61 130.9 197.94 131.31 197.94H138.62V197.91Z" fill="white"/>
<path d="M123.32 162.02H60.75L77.76 95.41C77.74 95.15 77.6 94.86 77.36 94.55C75.91 92.57 70.89 89.65 69.22 87.84C49.88 66.82 67.09 35.69 92.03 35.9C95.77 35.93 99.66 36.65 103.64 38.23C128.25 47.94 128.8 81.83 106.59 94.55C106.56 94.57 106.51 94.6 106.49 94.61L123.32 162.02Z" fill="white"/>
<path d="M272.79 150.09C265.64 150.09 259 148.92 252.86 146.58C246.72 144.24 241.41 140.91 236.91 136.58C232.41 132.26 228.9 127.18 226.38 121.35C223.86 115.52 222.61 109.13 222.61 102.15C222.61 95.17 223.87 88.78 226.38 82.95C228.9 77.12 232.42 72.05 236.97 67.72C241.52 63.4 246.83 60.06 252.92 57.72C259.01 55.38 265.67 54.21 272.91 54.21C280.94 54.21 288.2 55.6 294.69 58.38C301.18 61.16 306.63 65.24 311.04 70.63L297.27 83.34C294.09 79.72 290.56 77.01 286.68 75.2C282.8 73.39 278.56 72.49 273.97 72.49C269.64 72.49 265.67 73.2 262.05 74.61C258.43 76.02 255.3 78.05 252.65 80.7C250 83.35 247.95 86.48 246.49 90.1C245.03 93.72 244.31 97.74 244.31 102.15C244.31 106.56 245.04 110.58 246.49 114.2C247.95 117.82 250 120.95 252.65 123.6C255.3 126.25 258.43 128.28 262.05 129.69C265.67 131.1 269.64 131.81 273.97 131.81C278.56 131.81 282.8 130.91 286.68 129.1C290.56 127.29 294.09 124.53 297.27 120.83L311.04 133.54C306.63 138.93 301.18 143.03 294.69 145.85C288.2 148.67 280.9 150.09 272.78 150.09H272.79Z" fill="white"/>
<path d="M407.79 148.5V55.82H453.07C464.72 55.82 473.48 58.03 479.35 62.44C485.22 66.85 488.15 72.68 488.15 79.92C488.15 84.78 486.96 88.99 484.58 92.56C482.2 96.13 478.93 98.89 474.78 100.83C470.63 102.77 465.86 103.74 460.48 103.74L463 98.31C468.83 98.31 473.99 99.26 478.49 101.16C482.99 103.06 486.5 105.86 489.02 109.57C491.54 113.28 492.79 117.82 492.79 123.21C492.79 131.15 489.66 137.36 483.39 141.81C477.12 146.27 467.9 148.5 455.72 148.5H407.79ZM429.11 132.34H454.13C459.69 132.34 463.9 131.44 466.77 129.63C469.64 127.82 471.07 124.93 471.07 120.96C471.07 116.99 469.63 114.19 466.77 112.29C463.9 110.39 459.69 109.44 454.13 109.44H427.52V93.82H450.42C455.63 93.82 459.62 92.92 462.4 91.11C465.18 89.3 466.57 86.54 466.57 82.84C466.57 79.14 465.18 76.51 462.4 74.7C459.62 72.89 455.63 71.99 450.42 71.99H429.1V132.36L429.11 132.34Z" fill="white"/>
<path d="M502.64 148.5V55.82H542.23C555.12 55.82 565.13 58.8 572.28 64.76C579.43 70.72 583 78.95 583 89.45C583 96.33 581.37 102.27 578.1 107.26C574.83 112.25 570.2 116.06 564.2 118.71C558.2 121.36 551.05 122.68 542.75 122.68H514.55L524.08 113.28V148.5H502.63H502.64ZM524.09 115.66L514.56 105.6H541.57C548.19 105.6 553.13 104.17 556.4 101.3C559.67 98.43 561.3 94.48 561.3 89.45C561.3 84.42 559.67 80.36 556.4 77.53C553.13 74.71 548.19 73.29 541.57 73.29H514.56L524.09 63.1V115.66ZM561.56 148.5L538.39 114.87H561.29L584.72 148.5H561.55H561.56Z" fill="white"/>
<path d="M336.25 186.33C332.54 186.33 328.88 185.76 325.26 184.61C321.64 183.46 318.68 181.87 316.39 179.84L323.94 165.14C325.53 166.55 327.36 167.66 329.43 168.45C331.5 169.24 333.55 169.64 335.59 169.64C338.5 169.64 340.82 168.95 342.54 167.59C344.26 166.22 345.83 163.95 347.24 160.77L350.95 152.03L352.54 149.78L378.09 88.35H397.95L365.78 163.95C363.48 169.69 360.86 174.19 357.9 177.45C354.94 180.71 351.68 183.01 348.1 184.33C344.53 185.65 340.57 186.32 336.25 186.32V186.33ZM348.43 162.37L316.66 88.36H337.98L362.61 147.94L348.44 162.37H348.43Z" fill="white"/>
<path d="M228.99 38.33V11.77H238.51C240.74 11.77 242.64 12.12 244.24 12.83C245.83 13.54 247.06 14.56 247.92 15.88C248.78 17.21 249.21 18.82 249.21 20.72C249.21 22.62 248.78 24.16 247.92 25.5C247.06 26.84 245.83 27.86 244.24 28.57C242.65 29.28 240.74 29.63 238.51 29.63H230.05L230.92 28.72V38.32H228.99V38.33ZM230.92 28.84L230.05 27.89H238.51C241.37 27.89 243.54 27.26 245.02 26.01C246.5 24.76 247.24 22.99 247.24 20.72C247.24 18.45 246.5 16.64 245.02 15.39C243.54 14.14 241.37 13.51 238.51 13.51H230.05L230.92 12.56V28.84Z" fill="white"/>
<path d="M255.73 38.33V11.77H265.25C268.59 11.77 271.21 12.55 273.1 14.12C275 15.69 275.95 17.89 275.95 20.72C275.95 22.57 275.52 24.15 274.66 25.48C273.8 26.81 272.57 27.83 270.98 28.55C269.39 29.27 267.48 29.63 265.25 29.63H256.79L257.66 28.72V38.32H255.73V38.33ZM257.66 28.84L256.79 27.93H265.25C268.11 27.93 270.28 27.3 271.76 26.03C273.24 24.77 273.98 23 273.98 20.72C273.98 18.44 273.24 16.64 271.76 15.39C270.28 14.14 268.11 13.51 265.25 13.51H256.79L257.66 12.56V28.84ZM274.17 38.33L267.27 28.69H269.47L276.37 38.33H274.17Z" fill="white"/>
<path d="M294.31 38.52C292.34 38.52 290.51 38.19 288.83 37.51C287.15 36.84 285.68 35.89 284.43 34.66C283.18 33.43 282.21 32 281.53 30.37C280.85 28.74 280.51 26.96 280.51 25.04C280.51 23.12 280.85 21.34 281.53 19.71C282.21 18.08 283.18 16.65 284.43 15.42C285.68 14.19 287.15 13.25 288.83 12.57C290.51 11.9 292.34 11.56 294.31 11.56C296.28 11.56 298.11 11.9 299.79 12.57C301.47 13.24 302.93 14.18 304.17 15.4C305.41 16.61 306.38 18.04 307.07 19.67C307.76 21.3 308.11 23.09 308.11 25.04C308.11 26.99 307.76 28.78 307.07 30.41C306.37 32.04 305.41 33.46 304.17 34.68C302.93 35.89 301.47 36.84 299.79 37.51C298.11 38.18 296.28 38.52 294.31 38.52ZM294.31 36.73C296 36.73 297.57 36.44 299.01 35.86C300.45 35.28 301.7 34.46 302.77 33.39C303.83 32.33 304.66 31.09 305.25 29.67C305.84 28.25 306.14 26.71 306.14 25.04C306.14 23.37 305.84 21.8 305.25 20.39C304.66 18.99 303.83 17.75 302.77 16.69C301.71 15.63 300.46 14.81 299.01 14.22C297.57 13.64 296 13.35 294.31 13.35C292.62 13.35 291.05 13.64 289.61 14.22C288.17 14.8 286.91 15.62 285.84 16.69C284.76 17.75 283.93 18.99 283.34 20.39C282.75 21.79 282.45 23.34 282.45 25.04C282.45 26.74 282.75 28.25 283.34 29.67C283.93 31.09 284.77 32.33 285.84 33.39C286.91 34.45 288.17 35.27 289.61 35.86C291.05 36.44 292.62 36.73 294.31 36.73Z" fill="white"/>
<path d="M316.65 38.52C315.21 38.52 313.86 38.19 312.61 37.51C311.36 36.84 310.35 35.91 309.59 34.72L310.77 33.43C311.5 34.52 312.37 35.35 313.37 35.91C314.37 36.48 315.46 36.76 316.65 36.76C320.16 36.76 321.92 34.67 321.92 30.5V13.52H312.13V11.77H323.85V30.51C323.85 33.17 323.24 35.16 322.03 36.5C320.82 37.84 319.02 38.51 316.64 38.51L316.65 38.52Z" fill="white"/>
<path d="M332.89 38.33V11.77H350.64V13.52H334.82V36.58H351.21V38.33H332.89ZM334.59 25.69V23.98H348.97V25.69H334.59Z" fill="white"/>
<path d="M363.35 38.33V13.52H353.79V11.77H374.84V13.52H365.28V38.33H363.35Z" fill="white"/>
<path d="M390.51 38.52C388.54 38.52 386.71 38.19 385.03 37.51C383.35 36.84 381.88 35.89 380.63 34.66C379.38 33.43 378.41 32 377.73 30.37C377.05 28.74 376.71 26.96 376.71 25.04C376.71 23.12 377.05 21.34 377.73 19.71C378.41 18.08 379.38 16.65 380.63 15.42C381.88 14.19 383.35 13.25 385.03 12.57C386.71 11.9 388.54 11.56 390.51 11.56C392.48 11.56 394.31 11.9 395.99 12.57C397.67 13.24 399.13 14.18 400.37 15.4C401.61 16.61 402.58 18.04 403.27 19.67C403.97 21.3 404.31 23.09 404.31 25.04C404.31 26.99 403.96 28.78 403.27 30.41C402.57 32.04 401.61 33.46 400.37 34.68C399.13 35.89 397.67 36.84 395.99 37.51C394.31 38.18 392.48 38.52 390.51 38.52ZM390.51 36.73C392.2 36.73 393.77 36.44 395.21 35.86C396.65 35.28 397.9 34.46 398.97 33.39C400.03 32.33 400.86 31.09 401.45 29.67C402.04 28.25 402.34 26.71 402.34 25.04C402.34 23.37 402.04 21.8 401.45 20.39C400.86 18.99 400.03 17.75 398.97 16.69C397.91 15.63 396.66 14.81 395.21 14.22C393.77 13.64 392.2 13.35 390.51 13.35C388.82 13.35 387.25 13.64 385.81 14.22C384.37 14.8 383.11 15.62 382.04 16.69C380.96 17.75 380.13 18.99 379.54 20.39C378.95 21.79 378.65 23.34 378.65 25.04C378.65 26.74 378.95 28.25 379.54 29.67C380.13 31.09 380.97 32.33 382.04 33.39C383.11 34.45 384.37 35.27 385.81 35.86C387.25 36.44 388.82 36.73 390.51 36.73Z" fill="white"/>
</svg>
